# Blender v2.79 (sub 0) OBJ File: ''
# www.blender.org
mtllib wardrove.mtl
o wardrove_nodebox1
v 0.500000 -0.500000 0.062500
v 0.500000 -0.500000 0.500000
v 0.500000 1.000000 0.500000
v 0.500000 1.000000 0.062500
v -0.500000 -0.500000 0.062500
v -0.500000 -0.500000 0.500000
v -0.500000 1.000000 0.500000
v -0.500000 1.000000 0.062500
vt 0.625000 1.000000
vt 0.500000 1.000000
vt 0.500000 0.250000
vt 0.625000 0.250000
vt 0.640625 1.000000
vt 0.500000 1.000000
vt 0.500000 0.250000
vt 0.640625 0.250000
vt 0.500000 0.250000
vt 0.500000 1.000000
vt 0.000000 1.000000
vt 0.000000 0.250000
vt 1.000000 0.250000
vt 1.000000 1.000000
vt 0.500000 1.000000
vt 0.500000 0.250000
vt 0.000000 0.250000
vt 0.000000 0.000000
vt 0.500000 0.000000
vt 0.500000 0.250000
vt 0.000000 0.250000
vt 0.000000 0.000000
vt 0.500000 0.000000
vt 0.500000 0.250000
vn -1.0000 -0.0000 0.0000
vn 0.0000 -0.0000 1.0000
vn 0.0000 -1.0000 0.0000
usemtl none
s 1
f 1/1/1 2/2/1 3/3/1 4/4/1
f 5/5/1 6/6/1 7/7/1 8/8/1
f 1/9/2 4/10/2 8/11/2 5/12/2
f 2/13/2 3/14/2 7/15/2 6/16/2
f 1/17/3 2/18/3 6/19/3 5/20/3
f 4/21/3 3/22/3 7/23/3 8/24/3
